<svg width="1200" height="900" viewBox="0 0 1200 900" fill="none" xmlns="http://www.w3.org/2000/svg">
  <defs>
    <radialGradient id="bgGlow" cx="0" cy="0" r="1" gradientUnits="userSpaceOnUse" gradientTransform="translate(610 410) rotate(90) scale(520 690)">
      <stop stop-color="#2E2E2E" stop-opacity="0.75"/>
      <stop offset="1" stop-color="#070707" stop-opacity="0.98"/>
    </radialGradient>
    <radialGradient id="faceLight" cx="0" cy="0" r="1" gradientUnits="userSpaceOnUse" gradientTransform="translate(640 385) rotate(120) scale(350 250)">
      <stop stop-color="#E2E2E2"/>
      <stop offset="0.5" stop-color="#7A7A7A"/>
      <stop offset="1" stop-color="#242424"/>
    </radialGradient>
    <linearGradient id="hairShade" x1="398" y1="180" x2="866" y2="788" gradientUnits="userSpaceOnUse">
      <stop stop-color="#161616"/>
      <stop offset="1" stop-color="#050505"/>
    </linearGradient>
    <linearGradient id="lipPurple" x1="628" y1="556" x2="748" y2="578" gradientUnits="userSpaceOnUse">
      <stop stop-color="#8A2BE2"/>
      <stop offset="0.55" stop-color="#A854F7"/>
      <stop offset="1" stop-color="#6F1CC5"/>
    </linearGradient>
    <filter id="softBlur" x="0" y="0" width="1200" height="900" filterUnits="userSpaceOnUse" color-interpolation-filters="sRGB">
      <feGaussianBlur stdDeviation="42"/>
    </filter>
  </defs>

  <rect width="1200" height="900" fill="url(#bgGlow)"/>

  <g opacity="0.5" filter="url(#softBlur)">
    <ellipse cx="880" cy="680" rx="260" ry="150" fill="#2B2B2B"/>
    <ellipse cx="350" cy="640" rx="210" ry="120" fill="#1B1B1B"/>
  </g>

  <path d="M489 170C588 107 757 139 838 244C927 360 927 547 845 659C755 781 546 785 450 673C357 564 355 368 431 257C447 232 467 195 489 170Z" fill="url(#hairShade)"/>

  <path d="M554 210C636 173 742 194 791 268C839 338 846 452 810 544C769 649 673 740 579 734C495 728 437 644 420 548C402 445 422 311 495 248C512 233 532 221 554 210Z" fill="url(#faceLight)"/>

  <path d="M596 378C629 349 693 345 726 374C688 404 633 407 596 378Z" fill="#101010" fill-opacity="0.45"/>
  <path d="M625 418C652 411 690 418 709 436C681 444 646 442 625 418Z" fill="#0C0C0C" fill-opacity="0.55"/>

  <path d="M616 547C646 528 699 526 731 546C699 564 646 568 616 547Z" fill="url(#lipPurple)"/>
  <path d="M624 552C654 540 689 540 719 552C690 562 653 564 624 552Z" fill="#D8A3FF" fill-opacity="0.4"/>

  <path d="M768 233C829 286 863 378 859 468C854 569 808 657 729 714C798 682 858 620 893 541C935 442 921 323 846 240C824 216 798 198 768 233Z" fill="#000" fill-opacity="0.38"/>
</svg>
